<svg width="620" height="620" viewBox="0 0 620 620" fill="none" xmlns="http://www.w3.org/2000/svg" role="img" aria-label="Liquid chrome placeholder">
  <defs>
    <radialGradient id="chrome" cx="38%" cy="30%" r="82%">
      <stop offset="0%" stop-color="#F2F5FA" />
      <stop offset="32%" stop-color="#C6CDD8" />
      <stop offset="64%" stop-color="#8A93A6" />
      <stop offset="88%" stop-color="#454E61" />
      <stop offset="100%" stop-color="#222A3A" />
    </radialGradient>
    <linearGradient id="rim" x1="0" y1="0" x2="0" y2="1">
      <stop offset="0%" stop-color="#21E6FF" stop-opacity="0" />
      <stop offset="100%" stop-color="#21E6FF" stop-opacity="0.55" />
    </linearGradient>
    <filter id="soft" x="-30%" y="-30%" width="160%" height="160%">
      <feGaussianBlur stdDeviation="12" />
    </filter>
  </defs>
  <path
    d="M310 70 C 430 70 545 150 560 280 C 572 390 520 520 360 552 C 220 580 110 500 78 360 C 50 235 150 90 310 70 Z"
    fill="url(#chrome)"
  />
  <path
    d="M310 70 C 430 70 545 150 560 280 C 572 390 520 520 360 552 C 220 580 110 500 78 360 C 50 235 150 90 310 70 Z"
    fill="none"
    stroke="url(#rim)"
    stroke-width="2.5"
  />
  <ellipse cx="228" cy="196" rx="72" ry="46" fill="#FFFFFF" fill-opacity="0.55" filter="url(#soft)" />
  <ellipse cx="408" cy="430" rx="44" ry="24" fill="#0B0F18" fill-opacity="0.45" filter="url(#soft)" />
</svg>
